<svg width="348" height="366" viewBox="0 0 348 366" fill="none" xmlns="http://www.w3.org/2000/svg">
<path d="M173.507 73.5518H222.541V37.7188L294.207 -4.57764e-05V73.5518H347.957L294.207 141.446L293.264 239.515C293.264 283.835 267.021 312.538 226.313 346.071L188.594 283.835C209.336 267.231 219.712 256.488 219.712 237.629V147.104H173.507V73.5518Z" fill="#144B7F"/>
<path d="M209.34 353.615C189.059 361.476 156.925 367.09 135.235 365.464C113.545 363.838 92.4916 357.392 73.6096 346.595C54.7276 335.799 38.4933 320.924 26.0906 303.056C13.6879 285.188 5.4295 264.777 1.91768 243.311C-1.59415 221.846 -0.270877 199.867 5.79099 178.978C11.8529 158.089 22.5005 138.816 36.9574 122.565C51.4143 106.314 69.316 93.4946 89.357 85.0414C109.398 76.5882 131.073 72.7145 152.801 73.7027V142.389C141.211 141.862 126.55 143.365 115.859 147.874C105.169 152.383 95.6194 159.222 87.9075 167.89C80.1957 176.559 74.5158 186.84 71.2822 197.983C68.0486 209.126 67.3427 220.85 69.216 232.301C71.0894 243.751 75.4947 254.639 82.1108 264.171C88.7268 273.703 97.3868 281.637 107.459 287.397C117.532 293.156 128.762 296.595 140.333 297.462C151.903 298.329 163.521 296.603 174.339 292.41L209.34 353.615Z" fill="white"/>
</svg>
