<svg width="348" height="366" viewBox="0 0 348 366" fill="none" xmlns="http://www.w3.org/2000/svg">
<path d="M227.541 40.7376L289.207 8.28182V73.5518V78.5518H294.207H337.621L290.287 138.342L289.224 139.685L289.208 141.398L288.265 239.467L288.264 239.491V239.515C288.264 279.805 265.549 306.691 227.582 338.517L195.135 284.979C213.751 269.788 224.712 257.881 224.712 237.629V147.104V142.104H219.712H178.507V78.5518H222.541H227.541V73.5518V40.7376Z" fill="#144B7F" stroke="white" stroke-width="10"/>
<path d="M174.118 293.031L208.617 353.357C188.368 361.086 156.686 366.571 135.273 364.966C113.657 363.345 92.6752 356.921 73.8578 346.161C55.0403 335.402 38.8616 320.578 26.5013 302.771C14.1411 284.964 5.91093 264.622 2.41112 243.23C-1.08869 221.838 0.230049 199.935 6.27118 179.117C12.3123 158.3 22.9235 139.093 37.331 122.898C51.7384 106.702 69.5789 93.9264 89.5513 85.5021C109.377 77.1397 130.807 73.2743 152.301 74.1813V141.867C140.752 141.406 126.288 142.933 115.665 147.413C104.906 151.951 95.2953 158.834 87.534 167.558C79.7726 176.283 74.0564 186.629 70.802 197.844C67.5476 209.058 66.8372 220.858 68.7226 232.382C70.6079 243.906 75.0415 254.863 81.7 264.456C88.3585 274.049 97.074 282.034 107.211 287.831C117.348 293.627 128.651 297.088 140.295 297.961C151.797 298.823 163.345 297.139 174.118 293.031Z" fill="white" stroke="white"/>
</svg>
